<?xml version="1.0" encoding="UTF-8"?>
<svg width="1200pt" height="1200pt" version="1.1" viewBox="0 0 1200 1200" xmlns="http://www.w3.org/2000/svg">
 <path d="m922.91 337.48c0.72656 2.3203 1.0938 4.7344 1.0938 7.1602l-0.011719 131.11 154.59 428.09c5.4453 15.086-5.1367 30.973-20.812 32.09l-1.7617 0.0625h-96c-10.332 0-19.5-6.6094-22.77-16.41l-25.23-75.691-25.23 75.691c-3.0625 9.1875-11.316 15.57-20.848 16.332l-1.9219 0.078125-479.74-0.003906c-8.9766 15.422-21.977 28.125-37.543 36.582l46.156 26.637c11.48 6.6289 15.41 21.305 8.7852 32.785-6.3281 10.957-19.988 15.039-31.203 9.625l-1.582-0.83984-62.355-36c-1.7969-1.0391-3.4102-2.2734-4.8281-3.6641l0.007813 36.879c0 13.254-10.746 24-24 24-12.652 0-23.02-9.7891-23.938-22.207l-0.0625-1.793 0.011719-36.887c-1.0078 0.98828-2.1172 1.9023-3.3164 2.7188l-1.5195 0.95312-62.355 36c-11.477 6.625-26.156 2.6953-32.785-8.7852-6.3242-10.957-3.0273-24.828 7.2695-31.832l1.5156-0.95312 44.902-25.914c-11.875-6.1484-22.211-15.605-29.488-27.797l-1.7539-3.1055-1.2734-2.4961c-10.488-21.5-8.8516-52.711 3.5703-95.531l1.4219-4.8047 2.8945-9.2266 3.1992-9.5703c1.1211-3.2461 2.2852-6.5469 3.5039-9.9102l1.8633-5.082 3.9531-10.43c7.8594-20.336 36.57-20.504 44.668-0.26172 2.8047 7.0156 5.7812 13.566 8.9258 19.664l2.3867 4.4844 0.17969 0.30469 2.6289-4.7148c10.242-19.09 17.516-39.824 21.84-62.281l1.1055-6.168 0.89062-5.7695c2.9727-20.805 29.359-28.012 42.496-11.605 15.457 19.305 28.625 37.484 39.484 54.598l45.617-118.05c9.6094-24.852 16.219-50.75 19.707-77.145l0.95312-7.9336 5.9453-55.051c1.1367-10.555 9.0508-19.02 19.328-20.992l1.9531-0.28906 422.57-45.691v-41.461l-70.684-22.082c-12.652-3.9531-19.703-17.414-15.75-30.066 2.3477-7.5117 8.2344-13.398 15.75-15.746l87.535-27.355c12.652-3.9531 26.113 3.0977 30.066 15.746zm-609.93 462.06-2.4922 6.9336c-9.5742 25.426-22.91 48.875-40 70.266-9.3008 11.645-26.859 12.086-36.73 0.91797-2.3477-2.6523-4.6328-5.4102-6.8594-8.2695l-3.2969-4.3633-0.71875-1.0078-2.0898 8.1445-0.41797 1.75-0.39844 1.7188-1.4062 6.5938c-3.1328 15.832-3.5273 27.355-1.4648 34.168l0.48047 1.3867 0.46875 1.0742c6.207 12.727 20.918 18.027 32.691 12.281l0.98438-0.53516 1.0586-0.6875 1.7695-1.1328c7.2305-4.1836 16.184-4.3242 23.59-0.24609 8.8516 4.8711 17.332 7.4609 23.559 7.4609 26.355 0 48-22.262 48-50.059 0-19.266-10.512-45.898-31.914-79.098l-2.7305-4.1836zm553.44-291.78-388.63 42.012-3.8633 35.844c-3.2969 30.527-10.242 60.535-20.676 89.391l-2.9336 7.8398-61.02 157.85-0.40625-0.14062c5.8633 16.312 8.8164 31.406 8.8164 45.375l-0.042969 2.0469 352.57 0.011719zm35.477 48.168-101.46 332.05 46.27 0.011719 42.535-127.59c7.0742-21.219 36.391-21.859 44.812-1.9297l0.72656 1.9297 42.523 127.59h44.52zm-195.73 68.133c16.332-1.2578 29.098 13.859 25.125 29.75l-24 96c-2.6719 10.684-12.273 18.18-23.285 18.18h-156c-15.945 0-27.457-15.262-23.078-30.594l24-84c2.7578-9.6484 11.23-16.566 21.238-17.336zm-481.71 70.102c1.2461 0.84766 2.3203 1.9258 3.1719 3.1719 9.3828 13.793 14.078 25.117 14.078 33.969 0 13.637-10.746 24.688-24 24.688-13.258 0-24-11.051-24-24.688 0-8.2188 4.043-18.57 12.137-31.051l1.9375-2.918c3.7305-5.4805 11.195-6.9023 16.676-3.1719zm452.18-19.688-106.14 8.1602-10.68 37.355h105.45zm-472.63-206.48c13.254 0 24 10.746 24 24s-10.746 24-24 24-24-10.746-24-24 10.746-24 24-24zm45.371-329.64c18.855-6.4062 36.863 11.613 30.441 30.465l-1.1562 3.7227c-1.7539 6.2539-2.6562 12.777-2.6562 19.453 0 39.766 32.234 72 72 72 8.0039 0 15.797-1.2969 23.184-3.8086l1.7109-0.51562c18.207-4.7969 34.945 12.688 28.734 30.961-16.398 48.262-61.844 81.363-113.63 81.363-66.273 0-120-53.727-120-120 0-51.789 33.105-97.238 81.371-113.64zm350.63 173.64c13.254 0 24 10.746 24 24s-10.746 24-24 24-24-10.746-24-24 10.746-24 24-24zm-370.62-101.81-0.64453 0.91016c-8.082 11.715-12.734 25.863-12.734 40.898 0 39.766 32.234 72 72 72 15.035 0 29.18-4.6523 40.895-12.73l0.90234-0.66016-1.582-0.23438c-50.422-8.3633-90.227-48.168-98.59-98.59zm280.62-18.191c16.57 0 30 13.43 30 30s-13.43 30-30 30-30-13.43-30-30 13.43-30 30-30zm510 12c13.254 0 24 10.746 24 24s-10.746 24-24 24-24-10.746-24-24 10.746-24 24-24z"/>
</svg>
